<?xml version="1.0" standalone="no"?>
<!DOCTYPE svg PUBLIC "-//W3C//DTD SVG 20010904//EN"
 "http://www.w3.org/TR/2001/REC-SVG-20010904/DTD/svg10.dtd">
<svg version="1.0" xmlns="http://www.w3.org/2000/svg"
 width="16.000000pt" height="16.000000pt" viewBox="0 0 16.000000 16.000000"
 preserveAspectRatio="xMidYMid meet">
<metadata>
Created by potrace 1.11, written by Peter Selinger 2001-2013
</metadata>
<g transform="translate(0.000000,16.000000) scale(0.006130,-0.006130)"
fill="#000000" stroke="none">
<path d="M955 2590 c-2 -3 -2 -196 -1 -430 1 -375 4 -433 20 -495 58 -224 182
-355 403 -425 60 -19 98 -23 318 -27 138 -2 255 -6 262 -8 9 -3 12 -63 12
-232 0 -125 0 -247 0 -270 l1 -43 175 0 c133 0 175 3 176 13 1 16 1 1887 0
1907 -1 13 -28 15 -176 15 l-175 0 -1 -30 c0 -16 0 -248 -1 -514 l0 -483 -216
5 c-250 6 -290 15 -356 81 -79 79 -80 88 -84 541 l-3 401 -175 -1 c-97 0 -177
-2 -179 -5z"/>
<path d="M1990 375 c-18 -19 -20 -35 -21 -159 -1 -129 0 -139 21 -161 21 -22
27 -23 156 -22 182 3 177 -2 177 183 0 135 -1 138 -26 160 -23 20 -36 21 -156
21 -121 0 -132 -1 -151 -22z"/>
</g>
</svg>
